<svg width="512" height="512" viewBox="0 0 512 512" fill="none" xmlns="http://www.w3.org/2000/svg">
<g clip-path="url(#clip0_91_39)">
<path d="M45.8628 0.5V256C45.8628 405.467 181.23 470.29 256 511.5C330.77 470.29 466.137 405.467 466.137 256V0.5H45.8628ZM424.934 256C424.934 369.189 329.369 424.534 256 464.548C182.63 424.534 87.0661 369.189 87.0661 256V41.7097H424.934V256Z" fill="#2B7FFF"/>
<path d="M276.602 82.9193H152.992V330.686C155.821 334.312 158.733 337.856 161.727 341.304C194.895 379.45 237.857 406.924 275.723 428.366H275.736L276.602 428.82V297.21C335.77 297.21 383.73 249.242 383.73 190.064C383.73 130.887 335.77 82.9193 276.602 82.9193ZM276.602 256H235.398V353.626C220.565 342.403 206.515 329.958 194.195 315.96V124.129H276.602C313.012 124.129 342.527 153.649 342.527 190.064C342.527 226.48 313.012 256 276.602 256Z" fill="#2B7FFF"/>
</g>
<defs>
<clipPath id="clip0_91_39">
<rect width="420.274" height="511" fill="white" transform="translate(45.8628 0.5)"/>
</clipPath>
</defs>
</svg>
